Coordinates
version=1
nRows=21
nColumns=34
inDegrees=yes
inDegrees=no

Units are S.I. units (second, meters, Newtons, ...)
If the header above contains a line with 'inDegrees', this indicates whether rotational values are in degrees (yes) or radians (no).

endheader
time	pelvis_tilt	pelvis_list	pelvis_rotation	pelvis_tx	pelvis_ty	pelvis_tz	hip_flexion_r	hip_adduction_r	hip_rotation_r	knee_angle_r	ankle_angle_r	subtalar_angle_r	mtp_angle_r	hip_flexion_l	hip_adduction_l	hip_rotation_l	knee_angle_l	ankle_angle_l	subtalar_angle_l	mtp_angle_l	lumbar_extension	lumbar_bending	lumbar_rotation	arm_flex_r	arm_add_r	arm_rot_r	elbow_flex_r	pro_sup_r	arm_flex_l	arm_add_l	arm_rot_l	elbow_flex_l	pro_sup_l
3.366667 0.206662 0.016111 -0.129534 -0.012056 0.008723 -0.003716 1.332379 0.047678 -0.257642 0.679114 -0.278557 -0.073984 0.000000 1.339040 -0.133124 -0.362592 0.793904 -0.065300 0.093243 0.000000 -0.905308 0.181697 -0.280329 0.066667 -0.276143 0.218956 1.454244 1.698936 1.492435 0.072208 0.722575 0.793205 1.302293
3.383333 0.243563 0.009356 -0.147904 -0.012187 0.008697 -0.003676 1.286918 0.079710 -0.244224 0.640390 -0.321691 -0.054147 0.000000 1.290601 -0.143701 -0.375518 0.754508 -0.105771 0.144523 0.000000 -0.907901 0.167176 -0.292083 0.011593 -0.307234 0.241251 1.439600 1.700655 1.399697 0.056052 0.727864 0.790303 1.299575
3.400000 0.279470 0.002689 -0.170825 -0.012417 0.008661 -0.003633 1.247889 0.116168 -0.228976 0.608009 -0.374269 -0.050066 0.000000 1.242932 -0.157908 -0.397771 0.702411 -0.172893 0.196114 0.000000 -0.912632 0.142919 -0.305149 -0.016640 -0.355480 0.296717 1.441023 1.700459 1.314734 0.030827 0.721063 0.796096 1.291924
3.416667 0.316139 -0.000356 -0.193736 -0.012467 0.008622 -0.003668 1.219795 0.146465 -0.193254 0.601968 -0.425338 -0.054772 0.000000 1.198103 -0.171244 -0.417667 0.657263 -0.231164 0.231663 0.000000 -0.909854 0.114793 -0.308975 -0.067561 -0.409521 0.334097 1.467350 1.699333 1.234248 0.007753 0.729219 0.801131 1.288666
3.433333 0.354066 0.000126 -0.211775 -0.012716 0.008638 -0.003663 1.173970 0.168542 -0.162937 0.577341 -0.466690 -0.057247 0.000000 1.147037 -0.176956 -0.441038 0.615246 -0.279007 0.260343 0.000000 -0.912315 0.089064 -0.327832 -0.101527 -0.474311 0.394192 1.510558 1.674633 1.163575 -0.047942 0.734751 0.845216 1.265912
3.450000 0.378880 0.000420 -0.217029 -0.012666 0.008598 -0.003651 1.152877 0.177657 -0.137143 0.594422 -0.463907 -0.074037 0.000000 1.120075 -0.180556 -0.443780 0.599422 -0.301279 0.267052 0.000000 -0.901695 0.071936 -0.330608 -0.150409 -0.525938 0.419849 1.541642 1.667294 1.113941 -0.084178 0.758539 0.845245 1.260570
3.466667 0.384577 0.005176 -0.218845 -0.012788 0.008509 -0.003724 1.158783 0.176047 -0.107496 0.599459 -0.477033 -0.099868 0.000000 1.116914 -0.177246 -0.439239 0.588753 -0.304839 0.262246 0.000000 -0.876514 0.057704 -0.328029 -0.180341 -0.582784 0.444731 1.585894 1.661127 1.072938 -0.119578 0.777261 0.847986 1.255101
3.483333 0.398365 0.007065 -0.210573 -0.012784 0.008570 -0.003693 1.156589 0.166163 -0.076947 0.613516 -0.472114 -0.122160 0.000000 1.100937 -0.168506 -0.432228 0.577270 -0.307026 0.253251 0.000000 -0.859853 0.051374 -0.324360 -0.187696 -0.628016 0.457656 1.638075 1.655361 1.031975 -0.154915 0.791737 0.847577 1.250139
3.500000 0.408407 0.003265 -0.201411 -0.012932 0.008635 -0.003763 1.143719 0.153436 -0.070382 0.616482 -0.452232 -0.148915 0.000000 1.085487 -0.156004 -0.419025 0.568446 -0.297985 0.246349 0.000000 -0.847618 0.051774 -0.325126 -0.142669 -0.666419 0.480740 1.674668 1.627560 0.991435 -0.203491 0.781918 0.864060 1.225129
3.516667 0.427318 -0.003763 -0.199895 -0.013099 0.008658 -0.003797 1.124031 0.143610 -0.080827 0.621283 -0.435878 -0.158244 0.000000 1.059594 -0.149744 -0.409377 0.559667 -0.286293 0.241793 0.000000 -0.850376 0.049159 -0.299073 -0.116138 -0.698274 0.485619 1.702787 1.623788 0.975556 -0.229687 0.777053 0.848106 1.221302
3.533333 0.434477 -0.009216 -0.185448 -0.013013 0.008660 -0.003831 1.113761 0.130313 -0.098231 0.618227 -0.411869 -0.161835 0.000000 1.060301 -0.137910 -0.396481 0.568309 -0.283029 0.231653 0.000000 -0.841314 0.055460 -0.271894 -0.100668 -0.722143 0.486602 1.724395 1.620179 0.959478 -0.259237 0.769390 0.847081 1.218075
3.550000 0.448310 -0.009247 -0.168024 -0.012961 0.008684 -0.003924 1.086472 0.112615 -0.115853 0.586132 -0.414727 -0.152053 0.000000 1.045543 -0.119175 -0.400596 0.570613 -0.277404 0.232434 0.000000 -0.835373 0.062203 -0.246391 -0.065673 -0.747960 0.483476 1.749708 1.615439 0.944188 -0.281092 0.759693 0.851960 1.214947
3.566667 0.455445 -0.012139 -0.154468 -0.012943 0.008715 -0.004006 1.072833 0.103399 -0.134456 0.577776 -0.418853 -0.130974 0.000000 1.036625 -0.102930 -0.397928 0.568356 -0.274256 0.220611 0.000000 -0.825850 0.076932 -0.214402 -0.021871 -0.771626 0.470608 1.780973 1.603134 0.927766 -0.304937 0.701662 0.869700 1.206089
3.583333 0.455925 -0.012025 -0.139088 -0.013001 0.008713 -0.004018 1.065043 0.096031 -0.140394 0.568185 -0.423842 -0.109048 0.000000 1.034512 -0.086450 -0.397512 0.570246 -0.266930 0.216848 0.000000 -0.813842 0.087483 -0.173547 0.020667 -0.776940 0.436766 1.791001 1.589891 0.918419 -0.326025 0.653323 0.903147 1.204442
3.600000 0.469537 -0.016139 -0.128346 -0.013078 0.008722 -0.003979 1.041819 0.095407 -0.136688 0.558425 -0.426381 -0.079559 0.000000 1.017682 -0.081845 -0.402965 0.560069 -0.270868 0.220468 0.000000 -0.811985 0.094172 -0.118799 0.065114 -0.782342 0.411118 1.793637 1.585429 0.935860 -0.339901 0.637671 0.915772 1.204960
3.616667 0.476388 -0.020696 -0.119485 -0.013086 0.008712 -0.003995 1.036942 0.095979 -0.132690 0.561406 -0.429915 -0.066153 0.000000 1.009844 -0.077621 -0.398167 0.555129 -0.273105 0.215918 0.000000 -0.809919 0.106861 -0.051640 0.096327 -0.793586 0.363897 1.808404 1.571026 0.943450 -0.335633 0.581223 0.955362 1.206527
3.633333 0.465827 -0.020654 -0.107588 -0.012987 0.008695 -0.003959 1.059499 0.089681 -0.132417 0.581001 -0.427481 -0.070938 0.000000 1.024540 -0.072651 -0.392016 0.562756 -0.264940 0.212670 0.000000 -0.790795 0.117111 0.013368 0.122082 -0.798107 0.314815 1.810533 1.561404 0.958719 -0.334627 0.554117 1.001865 1.213053
3.650000 0.455520 -0.016835 -0.099680 -0.012907 0.008687 -0.003994 1.080339 0.081600 -0.128918 0.599022 -0.427135 -0.061223 0.000000 1.041535 -0.068486 -0.391923 0.580024 -0.254638 0.207533 0.000000 -0.773331 0.121473 0.074026 0.170861 -0.812955 0.290802 1.799091 1.559430 0.995079 -0.330765 0.547671 1.021870 1.215167
3.666667 0.446413 -0.015005 -0.089332 -0.013078 0.008701 -0.004049 1.088566 0.071644 -0.132778 0.596692 -0.432753 -0.050420 0.000000 1.048306 -0.054258 -0.389754 0.586459 -0.244731 0.196591 0.000000 -0.773428 0.127665 0.128786 0.244392 -0.828522 0.266765 1.778719 1.557103 1.054286 -0.327175 0.547852 1.034923 1.221165
3.683333 0.436392 -0.010899 -0.077775 -0.012930 0.008684 -0.004031 1.105264 0.061110 -0.145656 0.611885 -0.415286 -0.038073 0.000000 1.062731 -0.042705 -0.388914 0.592771 -0.241654 0.181763 0.000000 -0.763263 0.129238 0.180896 0.314415 -0.846712 0.247078 1.750284 1.555068 1.103250 -0.309727 0.542167 1.047411 1.226548
3.700000 0.414042 -0.007599 -0.064018 -0.012811 0.008639 -0.004001 1.141435 0.049562 -0.148743 0.646993 -0.392583 -0.041888 0.000000 1.094563 -0.034194 -0.383827 0.613392 -0.231275 0.176242 0.000000 -0.738449 0.131772 0.230272 0.369424 -0.869242 0.231760 1.729483 1.554212 1.146378 -0.291415 0.536096 1.077560 1.232996
